# Blender v2.90.1 OBJ File: ''
# www.blender.org
mtllib pala_dynamite_dynamite.mtl
o Plane
v -0.090589 0.090589 0.599824
v 0.090589 -0.090589 0.599824
v -0.090589 0.090589 -0.599824
v 0.090589 -0.090589 -0.599824
v 0.000000 -0.000000 0.599823
v -0.000000 0.000000 -0.599823
v 0.086816 0.094362 0.599823
v 0.086816 0.094362 -0.599823
v -0.003773 0.003773 0.599823
v -0.094362 -0.086815 -0.599823
v -0.094362 -0.086816 0.599823
v -0.003773 0.003773 -0.599823
v -0.085028 0.096150 -0.599824
v -0.085027 0.096150 0.599824
v 0.096150 -0.085028 0.599824
v 0.096150 -0.085027 -0.599824
v 0.005561 0.005561 0.599823
v 0.005561 0.005561 -0.599823
vt -0.000332 0.074454
vt 0.999512 0.074454
vt 0.999512 -0.000288
vt -0.000332 -0.000288
vt -0.000332 0.149197
vt 0.999512 0.149197
vt -0.000332 0.224094
vt 0.999513 0.224094
vt 0.999513 0.149351
vt -0.000332 0.149352
vt -0.000332 0.298836
vt 0.999513 0.298836
vt -0.000332 0.074454
vt -0.000332 -0.000288
vt 0.999512 -0.000288
vt 0.999512 0.074454
vt -0.000332 0.149197
vt 0.999512 0.149197
vn -0.7071 -0.7071 -0.0000
vn -0.7071 0.7071 0.0000
vn 0.7071 0.7071 0.0000
usemtl None
s off
f 5/1/1 6/2/1 4/3/1 2/4/1
f 1/5/1 3/6/1 6/2/1 5/1/1
f 9/7/2 12/8/2 10/9/2 11/10/2
f 7/11/2 8/12/2 12/8/2 9/7/2
f 17/13/3 15/14/3 16/15/3 18/16/3
f 14/17/3 17/13/3 18/16/3 13/18/3
